PathFileType	4	(X/Y/Z)	/Users/itak/Documents/Research/Walk-IL/dataset/trc/00332_00011.trc
DataRate	CameraRate	NumFrames	NumMarkers	Units	OrigDataRate	OrigDataStartFrame	OrigNumFrames
100.000000	100.000000	4	54	mm	100.000000	529	605
Frame#	Time	RPSI			LPSI			L3			STRN			T10			C7			CLAV			RBAK			LBAK			LSHO			LUPA			LAEL			LAOL			LWTS			LWPS			LFRA			LIFD			LHPS			LHTS			RSHO			RUPA			RAEL			RAOL			RWTS			RWPS			RFRA			RIFD			RHTS			RHPS			RBHD			LFHD			RFHD			LBHD			LHIP			RHIP			RASI			LASI			LTHI			LANK			LTIP			LTOE			LMT1			LMT5			LHEE			RKNE			RTHI			RANK			RTIP			RTOE			RMT1			RMT5			RHEE			LKNE			*53			
		X1	Y1	Z1	X2	Y2	Z2	X3	Y3	Z3	X4	Y4	Z4	X5	Y5	Z5	X6	Y6	Z6	X7	Y7	Z7	X8	Y8	Z8	X9	Y9	Z9	X10	Y10	Z10	X11	Y11	Z11	X12	Y12	Z12	X13	Y13	Z13	X14	Y14	Z14	X15	Y15	Z15	X16	Y16	Z16	X17	Y17	Z17	X18	Y18	Z18	X19	Y19	Z19	X20	Y20	Z20	X21	Y21	Z21	X22	Y22	Z22	X23	Y23	Z23	X24	Y24	Z24	X25	Y25	Z25	X26	Y26	Z26	X27	Y27	Z27	X28	Y28	Z28	X29	Y29	Z29	X30	Y30	Z30	X31	Y31	Z31	X32	Y32	Z32	X33	Y33	Z33	X34	Y34	Z34	X35	Y35	Z35	X36	Y36	Z36	X37	Y37	Z37	X38	Y38	Z38	X39	Y39	Z39	X40	Y40	Z40	X41	Y41	Z41	X42	Y42	Z42	X43	Y43	Z43	X44	Y44	Z44	X45	Y45	Z45	X46	Y46	Z46	X47	Y47	Z47	X48	Y48	Z48	X49	Y49	Z49	X50	Y50	Z50	X51	Y51	Z51	X52	Y52	Z52	X53	Y53	Z53	X54	Y54	Z54	

530	5.29	-1077.107055664062	984.0982666015625	263.9476928710938	-1076.924438476562	983.810546875	135.4203796386719	-1079.544311523438	1036.612182617188	203.7602691650391	-854.1392822265625	1231.029174804688	190.2915496826172	-1097.00732421875	1157.826416015625	195.5086364746094	-1062.30029296875	1407.037719726562	179.3998413085938	-904.4754028320312	1353.434204101562	186.0382843017578	-1106.683837890625	1267.770751953125	247.6625061035156	-1069.73681640625	1369.255981445312	77.75096130371094	-984.2653198242188	1388.560668945312	22.33297157287598	-998.9567260742188	1269.472290039062	-46.09393310546875	-979.4891967773438	1065.446411132812	-59.59125137329102	-1042.886108398438	1051.94482421875	-5.06636381149292	-888.9273071289062	818.8556518554688	-14.50431442260742	-925.0206298828125	810.7933349609375	-72.62371826171875	-964.2866821289062	961.2107543945312	-67.41169738769531	-889.2240600585938	659.4605102539062	-13.11926746368408	-930.9622192382812	740.3060913085938	-68.73373413085938	-878.3203125	740.519287109375	-31.89887046813965	-1005.264709472656	1394.887329101562	342.6021423339844	-1014.919860839844	1329.581176757812	407.7095642089844	-1003.967834472656	1061.086547851562	441.5632629394531	-1046.094604492188	1054.306274414062	356.0017395019531	-894.0919189453125	833.266357421875	392.1049194335938	-928.3602905273438	818.6329345703125	458.7898864746094	-976.2373657226562	992.843017578125	446.1205444335938	-879.3292846679688	659.616943359375	401.7613525390625	-864.8728637695312	731.53955078125	406.4656372070312	-913.8981323242188	733.5885009765625	454.9598388671875	-1029.115600585938	1610.453125	265.0849914550781	-861.2164306640625	1634.037109375	140.7088928222656	-868.9773559570312	1633.7587890625	241.8107604980469	-1044.431640625	1602.652465820312	119.7714691162109	-989.494384765625	925.008544921875	33.15837478637695	-998.5574951171875	929.7626342773438	372.6979064941406	-892.5113525390625	960.1771240234375	329.0184631347656	-870.7807006835938	953.8438110351562	90.18412017822266	-957.8052978515625	607.732177734375	41.81475830078125	-1038.07177734375	49.57577133178711	80.49813842773438	-1003.224365234375	251.0011291503906	56.80326843261719	-830.450927734375	46.17367935180664	129.8756561279297	-893.9462890625	38.6351318359375	172.0110931396484	-911.7320556640625	45.04463195800781	61.15307235717773	-1069.995849609375	43.92641448974609	149.7815246582031	-969.9874267578125	464.0401000976562	348.0817260742188	-928.7676391601562	721.8955078125	376.1961364746094	-1018.749755859375	49.76928329467773	312.0013427734375	-963.4365234375	346.5506286621094	334.9490966796875	-825.3375244140625	51.35785675048828	255.2636260986328	-881.0892944335938	42.6617546081543	216.1938934326172	-914.268310546875	42.14860916137695	328.7548217773438	-1071.166015625	47.85559463500977	265.5762939453125	-961.3607788085938	466.7059936523438	53.29941940307617	nan	nan	nan	
531	5.3	-1077.541748046875	984.0971069335938	264.0517272949219	-1077.37548828125	983.8102416992188	135.5420532226562	-1079.988037109375	1036.659423828125	203.87890625	-854.6551513671875	1231.039916992188	190.0541839599609	-1097.451904296875	1157.870727539062	195.6141662597656	-1062.83447265625	1407.03076171875	179.3991088867188	-905.064453125	1353.460693359375	185.8637542724609	-1107.028930664062	1267.783081054688	247.8036651611328	-1070.393920898438	1369.22509765625	77.73905181884766	-985.0125122070312	1388.529541015625	22.19667434692383	-999.7144165039062	1269.352661132812	-46.14543914794922	-979.9287109375	1065.333618164062	-59.34918975830078	-1043.35693359375	1051.797119140625	-4.866244316101074	-888.5142211914062	819.21142578125	-13.56414699554443	-924.517333984375	810.8215942382812	-71.68660736083984	-964.4119262695312	961.0951538085938	-66.94770812988281	-888.1137084960938	659.726318359375	-11.72213554382324	-930.0764770507812	740.3063354492188	-67.55625915527344	-877.4400634765625	740.899169921875	-30.72713088989258	-1005.525756835938	1394.96337890625	342.5557250976562	-1015.063720703125	1329.657592773438	407.698974609375	-1004.019287109375	1061.26904296875	441.5696105957031	-1046.302734375	1054.404541015625	356.1161193847656	-894.3716430664062	833.2529296875	391.9991455078125	-928.4722290039062	818.6820068359375	458.8018798828125	-976.19970703125	992.9823608398438	446.0547180175781	-879.8386840820312	659.4942016601562	401.9559631347656	-865.25048828125	731.4923095703125	406.4002685546875	-914.1641845703125	733.6075439453125	454.9767150878906	-1029.612548828125	1610.5126953125	265.0556640625	-861.7286376953125	1634.03857421875	140.4926910400391	-869.4140014648438	1633.74267578125	241.6273651123047	-1044.969604492188	1602.7021484375	119.698974609375	-989.7301635742188	924.990966796875	33.38556289672852	-999.0045166015625	929.8065795898438	372.8630065917969	-892.8632202148438	960.2197875976562	329.0469970703125	-871.1844482421875	953.9793701171875	90.25525665283203	-957.9848022460938	607.7407836914062	41.94160461425781	-1038.076782226562	49.57563781738281	80.49622344970703	-1003.283996582031	251.0148468017578	56.83027267456055	-830.4368286132812	46.18355178833008	129.8585357666016	-893.9706420898438	38.70488357543945	172.0059509277344	-911.7332763671875	45.05566024780273	61.14762878417969	-1069.996337890625	43.92414093017578	149.7787017822266	-970.1449584960938	464.0199584960938	348.1488342285156	-928.9583129882812	721.9164428710938	376.1987915039062	-1018.764038085938	49.75420379638672	312.0336608886719	-963.575927734375	346.4978332519531	335.01708984375	-825.3344116210938	51.35630416870117	255.2651977539062	-881.15478515625	42.76592254638672	216.2422332763672	-914.2685546875	42.14704132080078	328.758056640625	-1071.18310546875	47.82270050048828	265.5934753417969	-961.5692138671875	466.7474365234375	53.34397888183594	nan	nan	nan	
532	5.31	-1077.971557617188	984.083251953125	264.1390686035156	-1077.807373046875	983.8090209960938	135.6615295410156	-1080.447509765625	1036.72509765625	203.9867553710938	-855.1809692382812	1231.028930664062	189.8490753173828	-1097.909301757812	1157.92431640625	195.6915283203125	-1063.351684570312	1407.022827148438	179.3980560302734	-905.63427734375	1353.4951171875	185.6994934082031	-1107.363891601562	1267.783813476562	247.9261016845703	-1071.035278320312	1369.196655273438	77.70801544189453	-985.7235717773438	1388.49560546875	22.06196403503418	-1000.436706542969	1269.2333984375	-46.20048522949219	-980.3387451171875	1065.22119140625	-59.10308456420898	-1043.787353515625	1051.649169921875	-4.659537315368652	-888.05029296875	819.5746459960938	-12.6009578704834	-923.9716796875	810.85791015625	-70.72592926025391	-964.487060546875	960.9786987304688	-66.46415710449219	-887.0371704101562	659.9027709960938	-10.29466533660889	-929.1431274414062	740.3114624023438	-66.34832763671875	-876.5108642578125	741.313720703125	-29.53306198120117	-1005.786804199219	1395.031372070312	342.5059204101562	-1015.212341308594	1329.735595703125	407.6820983886719	-1004.081970214844	1061.42529296875	441.5545654296875	-1046.497192382812	1054.486694335938	356.220458984375	-894.5962524414062	833.2650756835938	391.9104919433594	-928.5805053710938	818.7251586914062	458.8070068359375	-976.2068481445312	993.1289672851562	446.0214233398438	-880.3521118164062	659.3804931640625	402.1646423339844	-865.614501953125	731.4639892578125	406.3244934082031	-914.4192504882812	733.6318969726562	454.9975280761719	-1030.112670898438	1610.552124023438	265.0022888183594	-862.2232666015625	1634.050170898438	140.2956695556641	-869.8555297851562	1633.73388671875	241.452392578125	-1045.487182617188	1602.747680664062	119.6174240112305	-989.9251708984375	924.96435546875	33.62250518798828	-999.468017578125	929.8602905273438	373.0455322265625	-893.2457275390625	960.2566528320312	329.0986938476562	-871.5660400390625	954.0956420898438	90.32727813720703	-958.1812133789062	607.7572631835938	42.05595016479492	-1038.080810546875	49.57741928100586	80.49531555175781	-1003.334655761719	251.0278015136719	56.85948944091797	-830.4224243164062	46.19154357910156	129.8440704345703	-894.0226440429688	38.76520919799805	172.0078582763672	-911.7343139648438	45.06717300415039	61.14573287963867	-1069.996948242188	43.92248916625977	149.77587890625	-970.309814453125	463.9966735839844	348.2138977050781	-929.185546875	721.963134765625	376.2478942871094	-1018.776062011719	49.74131011962891	312.0623168945312	-963.7156982421875	346.4392395019531	335.0771179199219	-825.3302001953125	51.35773468017578	255.2724609375	-881.2260131835938	42.87680053710938	216.2947540283203	-914.2691650390625	42.14529037475586	328.7635803222656	-1071.202514648438	47.7919807434082	265.6050415039062	-961.7606811523438	466.78564453125	53.39647674560547	nan	nan	nan	
533	5.32	-1078.389404296875	984.05322265625	264.2136535644531	-1078.229125976562	983.804443359375	135.7775421142578	-1080.920654296875	1036.805419921875	204.0861053466797	-855.7092895507812	1230.999267578125	189.6786346435547	-1098.382446289062	1157.987548828125	195.7408294677734	-1063.850341796875	1407.013671875	179.3935852050781	-906.17529296875	1353.538330078125	185.5419769287109	-1107.6982421875	1267.773681640625	248.0240783691406	-1071.659057617188	1369.169189453125	77.65855407714844	-986.3973388671875	1388.457763671875	21.9293270111084	-1001.116577148438	1269.113647460938	-46.25805282592773	-980.7124633789062	1065.107421875	-58.85429763793945	-1044.176391601562	1051.50048828125	-4.452811241149902	-887.5379638671875	819.9448852539062	-11.61675834655762	-923.383544921875	810.8976440429688	-69.74323272705078	-964.510986328125	960.8591918945312	-65.96376037597656	-885.9660034179688	660.0094604492188	-8.813992500305176	-928.1704711914062	740.31982421875	-65.11586761474609	-875.5485229492188	741.754150390625	-28.31608009338379	-1006.054077148438	1395.09228515625	342.4478454589844	-1015.370361328125	1329.817504882812	407.6557312011719	-1004.160827636719	1061.55517578125	441.5209655761719	-1046.682250976562	1054.552856445312	356.3167724609375	-894.77099609375	833.305908203125	391.8355407714844	-928.685302734375	818.76318359375	458.803955078125	-976.2555541992188	993.28076171875	446.014892578125	-880.8563842773438	659.2876586914062	402.3667297363281	-865.9598388671875	731.4631958007812	406.2344665527344	-914.65673828125	733.665771484375	455.0226745605469	-1030.607543945312	1610.568969726562	264.9228210449219	-862.6997680664062	1634.070922851562	140.1195068359375	-870.3062133789062	1633.731201171875	241.2848052978516	-1045.985229492188	1602.7880859375	119.5253524780273	-990.1039428710938	924.931640625	33.85842895507812	-999.92919921875	929.9221801757812	373.2355651855469	-893.6549072265625	960.2885131835938	329.1720275878906	-871.9379272460938	954.1881103515625	90.39743041992188	-958.4102783203125	607.7860717773438	42.14309692382812	-1038.08349609375	49.58087158203125	80.49505615234375	-1003.372192382812	251.0390930175781	56.89067840576172	-830.4073486328125	46.19787979125977	129.8315734863281	-894.0939331054688	38.81708908081055	172.0161743164062	-911.735595703125	45.07898712158203	61.14676284790039	-1069.997924804688	43.92154693603516	149.7730102539062	-970.483642578125	463.9729614257812	348.2786865234375	-929.4508056640625	722.035888671875	376.3431701660156	-1018.787414550781	49.72920227050781	312.08837890625	-963.8591918945312	346.3770141601562	335.1305847167969	-825.3255004882812	51.36259460449219	255.2857818603516	-881.3007202148438	42.99187469482422	216.3506317138672	-914.27001953125	42.14338684082031	328.7719421386719	-1071.223388671875	47.76329040527344	265.6123962402344	-961.9281616210938	466.8197631835938	53.45381164550781	nan	nan	nan	
